<svg width="640" height="512" xmlns="http://www.w3.org/2000/svg" role="img" class="svg-inline--fa fa-cloud-upload-alt fa-w-20" data-icon="cloud-upload-alt" data-prefix="fas" focusable="false" aria-hidden="true">

 <g>
  <title>Layer 1</title>
  <path id="svg_1" d="m537.6,226.6c4.1,-10.7 6.4,-22.4 6.4,-34.6c0,-53 -43,-96 -96,-96c-19.7,0 -38.1,6 -53.3,16.2c-27.7,-48 -79.4,-80.2 -138.7,-80.2c-88.4,0 -160,71.6 -160,160c0,2.7 0.1,5.4 0.2,8.1c-56,19.7 -96.2,73.1 -96.2,135.9c0,79.5 64.5,144 144,144l368,0c70.7,0 128,-57.3 128,-128c0,-61.9 -44,-113.6 -102.4,-125.4zm-144.2,61.4l-65.4,0l0,112c0,8.8 -7.2,16 -16,16l-48,0c-8.8,0 -16,-7.2 -16,-16l0,-112l-65.4,0c-14.3,0 -21.4,-17.2 -11.3,-27.3l105.4,-105.4c6.2,-6.2 16.4,-6.2 22.6,0l105.4,105.4c10.1,10.1 2.9,27.3 -11.3,27.3z" fill="#0031e2"/>
 </g>
</svg>